<?xml version="1.0" encoding="utf-8"?>
<svg xmlns="http://www.w3.org/2000/svg" viewBox="-0.676 0 8.676 8" width="138.816px" height="128px" xmlns:bx="https://boxy-svg.com"><defs/><g id="object-7" transform="matrix(1, 0, 0, 1, 0, 2.220446049250313e-16)"><path d="M 1 1 H 7 V 7 H 1 z" fill="#00cc33" id="object-1"/><path d="M 0 0 H 2 L 4 1 1 4 0 2 z" fill="#ffcc33" id="object-2"/><path d="M 4 1 L 6 0 H 8 V 2 L 7 4 z" fill="#ff3366" id="object-3"/><path d="M 1 4 L 4 7 2 8 H 0 V 6 z" fill="#3333ff" id="object-4"/><path d="M 7 4 L 8 6 V 8 H 6 L 4 7 z" fill="#00ccff" id="object-5"/><path style="fill: rgb(51, 51, 51); text-wrap-mode: nowrap;"/><path d="M 0.5 3.43 L 0.82 3.43 L 0.88 3.53 L 0.81 3.6 L 0.76 3.53 L 0.54 3.53 L 0.51 3.56 L 0.51 3.7 L 0.55 3.75 L 0.83 3.75 L 0.91 3.88 L 0.91 4.11 L 0.83 4.2 L 0.45 4.2 L 0.4 4.12 L 0.47 4.04 L 0.51 4.1 L 0.78 4.1 L 0.8 4.08 L 0.8 3.89 L 0.77 3.85 L 0.49 3.85 L 0.4 3.71 L 0.4 3.53 Z M 1.15 3.43 L 1.48 3.43 L 1.57 3.57 L 1.57 4.1 L 1.47 4.2 L 1.15 4.2 L 1.06 4.06 L 1.06 3.53 Z M 1.17 4.04 L 1.21 4.1 L 1.43 4.1 L 1.46 4.07 L 1.46 3.59 L 1.42 3.53 L 1.2 3.53 L 1.17 3.56 Z M 1.85 3.43 L 1.74 3.55 L 1.74 4.2 L 1.85 4.2 L 1.85 3.85 L 2.09 3.85 L 2.09 3.75 L 1.85 3.75 L 1.85 3.58 L 1.9 3.53 L 2.23 3.53 L 2.23 3.43 Z M 2.35 3.43 L 2.92 3.43 L 2.92 3.53 L 2.61 3.53 L 2.69 3.59 L 2.69 4.2 L 2.58 4.2 L 2.58 3.61 L 2.54 3.53 L 2.35 3.53 Z M 3.79 3.43 L 3.69 3.53 L 3.69 4.06 L 3.78 4.2 L 4.2 4.2 L 4.2 4.1 L 3.84 4.1 L 3.8 4.04 L 3.8 3.85 L 4.06 3.85 L 4.06 3.75 L 3.8 3.75 L 3.8 3.56 L 3.83 3.53 L 4.2 3.53 L 4.2 3.43 Z M 4.76 3.43 L 4.76 3.75 L 4.55 3.43 L 4.36 3.43 L 4.36 4.2 L 4.47 4.2 L 4.47 3.54 L 4.49 3.54 L 4.76 3.93 L 4.76 4.2 L 4.87 4.2 L 4.87 3.43 Z M 5.11 3.43 L 5.01 3.53 L 5.01 4.07 L 5.1 4.2 L 5.52 4.2 L 5.52 3.81 L 5.47 3.74 L 5.25 3.74 L 5.25 3.84 L 5.41 3.84 L 5.41 4.1 L 5.16 4.1 L 5.12 4.05 L 5.12 3.56 L 5.15 3.53 L 5.37 3.53 L 5.43 3.63 L 5.51 3.55 L 5.42 3.43 Z M 5.68 3.43 L 5.68 3.53 L 5.88 3.53 L 5.88 4.1 L 5.68 4.1 L 5.68 4.2 L 6.19 4.2 L 6.19 4.1 L 5.99 4.1 L 5.99 3.53 L 6.19 3.53 L 6.19 3.43 Z M 6.73 3.43 L 6.73 3.75 L 6.53 3.43 L 6.34 3.43 L 6.34 4.2 L 6.45 4.2 L 6.45 3.54 L 6.47 3.54 L 6.73 3.93 L 6.73 4.2 L 6.85 4.2 L 6.85 3.43 Z M 7.08 3.43 L 6.99 3.53 L 6.99 4.06 L 7.08 4.2 L 7.5 4.2 L 7.5 4.1 L 7.14 4.1 L 7.1 4.04 L 7.1 3.85 L 7.35 3.85 L 7.35 3.75 L 7.1 3.75 L 7.1 3.56 L 7.13 3.53 L 7.5 3.53 L 7.5 3.43 Z" style="fill: rgb(51, 51, 51); text-transform: uppercase; text-wrap-mode: nowrap;"/></g></svg>
